<?xml version="1.0" standalone="no"?>
<!DOCTYPE svg PUBLIC "-//W3C//DTD SVG 20010904//EN"
 "http://www.w3.org/TR/2001/REC-SVG-20010904/DTD/svg10.dtd">
<svg version="1.0" xmlns="http://www.w3.org/2000/svg"
 width="2048.000000pt" height="2048.000000pt" viewBox="0 0 2048.000000 2048.000000"
 preserveAspectRatio="xMidYMid meet">

<g transform="translate(0.000000,2048.000000) scale(0.100000,-0.100000)"
fill="#000000" stroke="none">
<path d="M11155 15224 c-233 -31 -426 -88 -655 -193 -382 -174 -733 -527 -942
-946 -132 -264 -201 -504 -233 -805 -30 -287 -17 -388 56 -441 46 -32 144 -34
185 -3 64 47 68 60 81 262 23 358 100 638 254 916 90 164 160 256 299 396 423
426 1049 593 1650 440 267 -68 521 -209 762 -422 127 -113 171 -160 240 -258
61 -88 161 -279 202 -389 40 -104 90 -300 108 -421 18 -125 14 -442 -7 -574
-19 -127 -15 -164 25 -210 40 -45 79 -59 143 -54 106 9 137 56 167 258 20 127
22 171 17 355 -9 330 -53 553 -165 825 -141 345 -327 585 -647 836 -296 232
-669 387 -1035 429 -152 18 -370 18 -505 -1z"/>
<path d="M11229 14715 c-125 -20 -200 -41 -324 -92 -366 -149 -671 -441 -859
-821 -128 -257 -189 -490 -202 -770 -6 -133 -6 -138 17 -171 75 -108 205 -112
282 -9 15 20 22 57 32 159 41 419 193 767 450 1025 168 169 349 275 564 331
119 31 322 35 438 10 400 -90 715 -394 857 -830 59 -180 70 -251 71 -467 l0
-195 -990 0 c-916 0 -992 -1 -1021 -17 -40 -22 -82 -72 -90 -106 -3 -15 -8
-33 -10 -41 -6 -20 16 -92 39 -125 11 -16 39 -37 62 -47 39 -17 95 -18 1121
-19 717 -1 1088 2 1106 9 69 26 111 171 124 426 26 546 -182 1069 -562 1416
-291 265 -719 394 -1105 334z"/>
<path d="M9430 12588 c-52 -27 -78 -60 -90 -114 -13 -52 -13 -4346 0 -4398 35
-154 234 -184 307 -46 l23 43 0 2198 c0 1525 -3 2206 -11 2226 -23 62 -97 113
-164 113 -12 0 -41 -10 -65 -22z"/>
<path d="M10005 12538 c-48 -28 -85 -89 -85 -141 0 -107 161 -469 287 -647
245 -342 599 -573 988 -646 147 -28 392 -26 543 4 327 65 631 237 879 495 188
196 383 503 383 603 0 91 -63 155 -158 161 -91 6 -123 -19 -193 -149 -143
-266 -315 -460 -534 -600 -215 -139 -417 -200 -660 -200 -322 0 -591 115 -830
356 -159 160 -265 337 -353 586 -41 116 -52 137 -84 163 -52 42 -126 48 -183
15z"/>
<path d="M7049 7805 c-31 -17 -54 -66 -45 -97 13 -47 125 -607 142 -708 15
-88 22 -109 45 -132 27 -28 29 -28 157 -28 l130 0 11 -32 c6 -18 184 -636 395
-1373 212 -737 393 -1362 403 -1390 33 -90 -71 -83 1233 -78 l1145 6 32 32
c18 18 33 44 34 57 0 12 188 642 417 1398 l417 1375 122 5 c105 4 125 8 142
25 22 21 64 174 153 555 61 263 67 308 43 344 -40 60 148 56 -2512 56 -2086
-1 -2442 -3 -2464 -15z"/>
</g>
</svg>
